<?xml version="1.0" standalone="no"?>
<!DOCTYPE svg PUBLIC "-//W3C//DTD SVG 20010904//EN"
 "http://www.w3.org/TR/2001/REC-SVG-20010904/DTD/svg10.dtd">
<svg version="1.0" xmlns="http://www.w3.org/2000/svg"
 width="512.000000pt" height="512.000000pt" viewBox="0 0 512.000000 512.000000"
 preserveAspectRatio="xMidYMid meet">
<metadata>
Created by potrace 1.11, written by Peter Selinger 2001-2013
</metadata>
<g transform="translate(0.000000,512.000000) scale(0.100000,-0.100000)"
fill="#000000" stroke="none">
<path d="M2375 4445 c-225 -49 -386 -134 -536 -284 -198 -200 -301 -448 -299
-725 0 -45 2 -92 4 -106 13 -87 19 -119 38 -178 11 -37 35 -100 54 -140 19
-40 34 -73 34 -75 0 -1 -18 -3 -40 -4 -94 -4 -208 -87 -260 -189 l-25 -49 0
-485 0 -485 28 -56 c52 -107 155 -177 274 -187 l63 -5 0 -197 0 -197 -31 -32
c-57 -61 -81 -131 -87 -255 -4 -91 -2 -114 10 -124 12 -9 225 -12 964 -10
l949 3 -1 125 c0 116 -2 129 -28 180 -15 30 -41 69 -57 85 l-29 31 0 196 0
195 70 5 c92 7 165 43 225 111 85 98 84 86 84 627 0 261 -3 477 -7 480 -4 3
-20 31 -36 62 -45 91 -153 165 -250 171 -23 2 -40 5 -40 8 1 2 10 24 22 49 38
85 50 119 71 193 98 357 -15 746 -291 1001 -76 71 -177 142 -248 174 -103 46
-132 56 -265 89 -48 12 -303 11 -360 -2z"/>
</g>
</svg>
